ply
format ascii 1.0
comment minimal dataset for conformance and perf smoke
element vertex 3
property float x
property float y
property float z
property float opacity
property float scale_0
property float scale_1
property float scale_2
property float rot_0
property float rot_1
property float rot_2
property float rot_3
property float f_dc_0
property float f_dc_1
property float f_dc_2
end_header
0.0 0.0 0.5 0.9 1.0 1.0 1.0 1.0 0.0 0.0 0.0 0.9 0.2 0.1
0.1 0.1 1.2 0.8 1.1 1.0 0.9 1.0 0.0 0.0 0.0 0.7 0.3 0.2
0.0 0.0 -0.1 0.5 1.0 1.0 1.0 1.0 0.0 0.0 0.0 0.1 0.1 0.1
